<svg width="39.000000" height="700.000000" viewBox="0 0 39 700" fill="none" xmlns="http://www.w3.org/2000/svg" xmlns:xlink="http://www.w3.org/1999/xlink">
	<desc>
			Created with Pixso.
	</desc>
	<defs/>
	<path id="explore slider" d="M17 0L22 0L22 331.15C31.58 332.38 39 340.57 39 350.5C39 360.42 31.58 368.61 22 369.84L22 700L17 700L17 369.84C7.41 368.61 0 360.42 0 350.5C0 340.57 7.41 332.38 17 331.15L17 0ZM19.5 365C27.5 365 34 358.5 34 350.5C34 342.49 27.5 336 19.5 336C11.49 336 5 342.49 5 350.5C5 358.5 11.49 365 19.5 365Z" fill="#FFFFFF" fill-opacity="1.000000" fill-rule="evenodd"/>
</svg>
