<svg width="220.000000" height="220.000000" viewBox="0 0 220 220" fill="none" xmlns="http://www.w3.org/2000/svg" xmlns:xlink="http://www.w3.org/1999/xlink">
	<desc>
			Created with Pixso.
	</desc>
	<defs/>
	<path id="Vector" d="M110 8.89C130 8.88 149.55 14.81 166.19 25.92C182.82 37.03 195.79 52.83 203.44 71.31C211.1 89.79 213.1 110.12 209.2 129.74C205.3 149.36 195.67 167.38 181.52 181.52C167.38 195.67 149.36 205.3 129.74 209.2C110.12 213.1 89.79 211.1 71.31 203.44C52.83 195.79 37.03 182.82 25.92 166.19C14.81 149.55 8.88 130 8.89 110C8.92 83.19 19.59 57.49 38.54 38.54C57.49 19.59 83.19 8.92 110 8.89ZM110 0C88.24 0 66.97 6.45 48.88 18.53C30.79 30.62 16.69 47.8 8.37 67.9C0.04 88 -2.14 110.12 2.11 131.46C6.35 152.79 16.83 172.39 32.21 187.78C47.6 203.16 67.2 213.64 88.54 217.88C109.87 222.13 131.99 219.95 152.09 211.62C172.19 203.3 189.37 189.2 201.46 171.11C213.54 153.02 220 131.75 220 110C220 80.82 208.41 52.84 187.78 32.21C167.15 11.58 139.17 0 110 0Z" fill="#FFFFFF" fill-opacity="1.000000" fill-rule="nonzero"/>
	<path id="Vector" d="M167.95 110L76.52 49.91C76.64 140.49 76.52 96.04 76.52 170.08L167.95 110Z" fill="#FFFFFF" fill-opacity="1.000000" fill-rule="nonzero"/>
</svg>
