<svg width="38.000000" height="31.000000" viewBox="0 0 38 31" fill="none" xmlns="http://www.w3.org/2000/svg" xmlns:xlink="http://www.w3.org/1999/xlink">
	<desc>
			Created with Pixso.
	</desc>
	<defs>
		<clipPath id="clip25_108">
			<rect id="volume" width="38.000000" height="31.000000" fill="white" fill-opacity="0"/>
		</clipPath>
	</defs>
	<rect id="volume" width="38.000000" height="31.000000" fill="#FFFFFF" fill-opacity="0"/>
	<g clip-path="url(#clip25_108)">
		<path id="Vector" d="M19.35 0C18.87 0 18.46 0.16 18.11 0.48L8.96 8.97L1.75 8.97C1.28 8.97 0.87 9.13 0.52 9.45C0.17 9.78 0 10.16 0 10.6L0 20.39C0 20.83 0.17 21.21 0.52 21.54C0.87 21.86 1.28 22.02 1.75 22.02L8.96 22.02L18.11 30.51C18.46 30.83 18.87 31 19.35 31C19.82 31 20.24 30.83 20.58 30.51C20.93 30.19 21.11 29.81 21.11 29.36L21.11 1.63C21.11 1.19 20.93 0.8 20.58 0.48C20.24 0.16 19.82 0 19.35 0L19.35 0Z" fill="#B3B3B3" fill-opacity="1.000000" fill-rule="nonzero"/>
		<path id="Vector" d="M29.59 19.13C30.33 18.01 30.7 16.8 30.7 15.51C30.7 14.21 30.33 13 29.59 11.87C28.85 10.74 27.87 9.95 26.65 9.49C26.48 9.4 26.26 9.36 26 9.36C25.54 9.36 25.15 9.52 24.82 9.83C24.49 10.15 24.32 10.54 24.32 11C24.32 11.36 24.43 11.66 24.64 11.91C24.85 12.15 25.1 12.37 25.4 12.55C25.69 12.73 25.99 12.92 26.29 13.14C26.58 13.35 26.83 13.65 27.04 14.04C27.25 14.44 27.36 14.92 27.36 15.5C27.36 16.08 27.25 16.57 27.04 16.96C26.83 17.36 26.58 17.66 26.29 17.87C25.99 18.08 25.69 18.28 25.4 18.46C25.1 18.64 24.85 18.85 24.64 19.1C24.43 19.35 24.32 19.65 24.32 20.01C24.32 20.47 24.49 20.86 24.82 21.17C25.15 21.49 25.54 21.65 26 21.65C26.26 21.65 26.48 21.6 26.65 21.52C27.87 21.04 28.85 20.24 29.59 19.12L29.59 19.13Z" fill="#B3B3B3" fill-opacity="1.000000" fill-rule="nonzero"/>
		<path id="Vector" d="M35.75 22.85C37.25 20.61 38 18.15 38 15.49C38 12.84 37.25 10.39 35.75 8.13C34.26 5.89 32.28 4.25 29.81 3.23C29.59 3.14 29.36 3.1 29.13 3.1C28.67 3.1 28.27 3.26 27.94 3.59C27.61 3.92 27.44 4.31 27.44 4.76C27.44 5.44 27.78 5.95 28.47 6.3C29.45 6.8 30.12 7.19 30.47 7.45C31.78 8.38 32.79 9.56 33.52 10.97C34.25 12.39 34.62 13.9 34.62 15.5C34.62 17.09 34.25 18.6 33.52 20.02C32.79 21.43 31.78 22.61 30.47 23.54C30.12 23.8 29.45 24.19 28.47 24.69C27.78 25.04 27.44 25.55 27.44 26.23C27.44 26.68 27.61 27.07 27.94 27.4C28.27 27.73 28.68 27.9 29.15 27.9C29.36 27.9 29.58 27.85 29.81 27.76C32.27 26.74 34.26 25.1 35.75 22.85L35.75 22.85Z" fill="#B3B3B3" fill-opacity="1.000000" fill-rule="nonzero"/>
	</g>
</svg>
